<svg xmlns="http://www.w3.org/2000/svg" xmlns:xlink="http://www.w3.org/1999/xlink" width="500" zoomAndPan="magnify" viewBox="0 0 375 374.999991" height="500" preserveAspectRatio="xMidYMid meet" version="1.0"><defs><clipPath id="82ca66d43a"><path d="M 203 195 L 305.679688 195 L 305.679688 254 L 203 254 Z M 203 195 " clip-rule="nonzero"/></clipPath><clipPath id="bd89225ab5"><path d="M 196 264 L 296 264 L 296 308.804688 L 196 308.804688 Z M 196 264 " clip-rule="nonzero"/></clipPath></defs><path fill="#CCA349" d="M 271.007812 92.707031 C 268.300781 105.265625 263.148438 122.972656 254.386719 132.261719 C 252.5625 134.199219 252.761719 137.667969 254.769531 139.332031 C 256.894531 141.09375 258.867188 143.011719 260.6875 145.085938 C 262.511719 147.15625 264.164062 149.359375 265.644531 151.6875 C 267.125 154.015625 268.417969 156.445312 269.519531 158.976562 C 270.621094 161.507812 271.519531 164.109375 272.21875 166.777344 C 272.84375 169.175781 275.652344 169.296875 276.394531 166.949219 C 279.097656 158.4375 284.078125 146.335938 291.886719 140.046875 C 294.058594 138.300781 294.257812 134.578125 292.351562 132.4375 C 286.601562 125.980469 277.1875 112.738281 274.324219 92.878906 C 274.015625 90.726562 271.460938 90.597656 271.007812 92.707031 Z M 271.007812 92.707031 " fill-opacity="1" fill-rule="nonzero"/><path fill="#010101" d="M 163.617188 73.226562 L 220.941406 130.546875 C 221.378906 130.988281 221.773438 131.464844 222.117188 131.980469 C 222.464844 132.5 222.753906 133.042969 222.992188 133.617188 C 223.230469 134.191406 223.410156 134.785156 223.53125 135.394531 C 223.652344 136.003906 223.714844 136.617188 223.714844 137.238281 C 223.714844 137.863281 223.652344 138.476562 223.53125 139.085938 C 223.410156 139.695312 223.230469 140.289062 222.992188 140.863281 C 222.753906 141.4375 222.464844 141.980469 222.117188 142.5 C 221.773438 143.015625 221.378906 143.492188 220.941406 143.933594 L 192.109375 172.765625 C 191.667969 173.207031 191.191406 173.597656 190.675781 173.945312 C 190.15625 174.289062 189.613281 174.582031 189.039062 174.816406 C 188.464844 175.054688 187.871094 175.234375 187.261719 175.355469 C 186.652344 175.476562 186.035156 175.539062 185.414062 175.539062 C 184.792969 175.539062 184.179688 175.476562 183.570312 175.355469 C 182.957031 175.234375 182.367188 175.054688 181.792969 174.816406 C 181.21875 174.582031 180.671875 174.289062 180.15625 173.945312 C 179.640625 173.597656 179.160156 173.207031 178.722656 172.765625 L 121.398438 115.445312 C 120.960938 115.003906 120.566406 114.527344 120.222656 114.007812 C 119.878906 113.492188 119.585938 112.949219 119.347656 112.375 C 119.109375 111.800781 118.929688 111.207031 118.808594 110.597656 C 118.6875 109.988281 118.628906 109.371094 118.628906 108.75 C 118.628906 108.128906 118.6875 107.515625 118.808594 106.902344 C 118.929688 106.292969 119.109375 105.703125 119.347656 105.128906 C 119.585938 104.554688 119.878906 104.007812 120.222656 103.492188 C 120.566406 102.976562 120.960938 102.496094 121.398438 102.058594 L 150.230469 73.226562 C 150.671875 72.785156 151.148438 72.394531 151.667969 72.046875 C 152.183594 71.703125 152.730469 71.410156 153.304688 71.171875 C 153.878906 70.933594 154.46875 70.753906 155.078125 70.632812 C 155.6875 70.511719 156.304688 70.453125 156.925781 70.453125 C 157.546875 70.453125 158.164062 70.511719 158.773438 70.632812 C 159.382812 70.753906 159.972656 70.933594 160.546875 71.171875 C 161.121094 71.410156 161.667969 71.703125 162.183594 72.046875 C 162.703125 72.394531 163.179688 72.785156 163.617188 73.226562 Z M 163.617188 73.226562 " fill-opacity="1" fill-rule="nonzero"/><path fill="#010101" d="M 188.964844 205.871094 L 134.488281 205.871094 C 133.695312 205.871094 132.957031 206.074219 132.277344 206.484375 C 131.59375 206.890625 131.066406 207.445312 130.691406 208.144531 C 130.316406 208.84375 130.144531 209.589844 130.183594 210.382812 C 130.21875 211.175781 130.457031 211.90625 130.894531 212.566406 C 137.050781 221.933594 152.726562 238.207031 188.5625 241.769531 C 188.832031 241.796875 189.101562 241.796875 189.371094 241.765625 C 189.644531 241.738281 189.90625 241.679688 190.167969 241.597656 C 190.425781 241.511719 190.671875 241.402344 190.90625 241.265625 C 191.144531 241.128906 191.363281 240.972656 191.5625 240.789062 C 191.765625 240.605469 191.945312 240.40625 192.105469 240.1875 C 192.265625 239.964844 192.402344 239.730469 192.511719 239.484375 C 192.625 239.234375 192.707031 238.976562 192.765625 238.710938 C 192.824219 238.445312 192.851562 238.175781 192.851562 237.90625 L 192.851562 209.753906 C 192.851562 209.238281 192.753906 208.742188 192.554688 208.269531 C 192.359375 207.792969 192.078125 207.371094 191.714844 207.007812 C 191.347656 206.644531 190.929688 206.363281 190.453125 206.164062 C 189.976562 205.96875 189.480469 205.871094 188.964844 205.871094 Z M 188.964844 205.871094 " fill-opacity="1" fill-rule="nonzero"/><path fill="#010101" d="M 136.625 147.621094 L 146.546875 157.539062 C 146.753906 157.746094 146.9375 157.972656 147.097656 158.214844 C 147.257812 158.457031 147.394531 158.710938 147.507812 158.980469 C 147.621094 159.25 147.703125 159.527344 147.761719 159.8125 C 147.816406 160.097656 147.84375 160.386719 147.84375 160.679688 C 147.84375 160.96875 147.816406 161.257812 147.761719 161.542969 C 147.703125 161.828125 147.621094 162.105469 147.507812 162.375 C 147.394531 162.644531 147.257812 162.902344 147.097656 163.144531 C 146.9375 163.386719 146.753906 163.609375 146.546875 163.816406 L 88.957031 221.40625 C 88.75 221.609375 88.527344 221.792969 88.285156 221.957031 C 88.042969 222.117188 87.785156 222.253906 87.519531 222.367188 C 87.25 222.476562 86.972656 222.5625 86.683594 222.617188 C 86.398438 222.675781 86.109375 222.703125 85.820312 222.703125 C 85.527344 222.703125 85.238281 222.675781 84.953125 222.617188 C 84.667969 222.5625 84.390625 222.476562 84.121094 222.367188 C 83.851562 222.253906 83.597656 222.117188 83.355469 221.957031 C 83.113281 221.792969 82.886719 221.609375 82.683594 221.40625 L 72.761719 211.484375 C 72.554688 211.277344 72.371094 211.054688 72.210938 210.8125 C 72.046875 210.570312 71.910156 210.3125 71.800781 210.042969 C 71.6875 209.773438 71.605469 209.496094 71.546875 209.210938 C 71.492188 208.925781 71.460938 208.636719 71.460938 208.347656 C 71.460938 208.054688 71.492188 207.765625 71.546875 207.480469 C 71.605469 207.195312 71.6875 206.917969 71.800781 206.648438 C 71.910156 206.378906 72.046875 206.125 72.210938 205.882812 C 72.371094 205.640625 72.554688 205.414062 72.761719 205.207031 L 130.351562 147.621094 C 130.554688 147.414062 130.78125 147.230469 131.023438 147.066406 C 131.265625 146.90625 131.519531 146.769531 131.789062 146.65625 C 132.058594 146.546875 132.335938 146.460938 132.621094 146.40625 C 132.90625 146.347656 133.195312 146.320312 133.488281 146.320312 C 133.777344 146.320312 134.066406 146.347656 134.351562 146.40625 C 134.640625 146.460938 134.917969 146.546875 135.1875 146.65625 C 135.453125 146.769531 135.710938 146.90625 135.953125 147.066406 C 136.195312 147.230469 136.417969 147.414062 136.625 147.621094 Z M 136.625 147.621094 " fill-opacity="1" fill-rule="nonzero"/><g clip-path="url(#82ca66d43a)"><path fill="#010101" d="M 203.28125 249.929688 L 203.28125 208.238281 C 203.28125 207.75 203.375 207.273438 203.5625 206.820312 C 203.75 206.367188 204.019531 205.964844 204.367188 205.617188 C 204.714844 205.269531 205.113281 205 205.570312 204.8125 C 206.023438 204.625 206.496094 204.53125 206.988281 204.53125 C 207.332031 204.53125 207.671875 204.496094 208.007812 204.429688 C 208.34375 204.363281 208.667969 204.265625 208.988281 204.132812 C 209.304688 204.003906 209.605469 203.84375 209.890625 203.652344 C 210.175781 203.460938 210.4375 203.246094 210.679688 203.003906 C 210.921875 202.761719 211.140625 202.496094 211.328125 202.210938 C 211.519531 201.925781 211.679688 201.625 211.8125 201.308594 C 211.941406 200.992188 212.042969 200.667969 212.109375 200.328125 C 212.175781 199.992188 212.207031 199.65625 212.207031 199.3125 L 212.207031 198.863281 C 212.207031 198.375 212.304688 197.898438 212.492188 197.445312 C 212.679688 196.992188 212.949219 196.589844 213.296875 196.242188 C 213.644531 195.894531 214.042969 195.628906 214.496094 195.4375 C 214.953125 195.25 215.425781 195.15625 215.917969 195.15625 L 301.714844 195.15625 C 302.203125 195.15625 302.679688 195.25 303.132812 195.4375 C 303.585938 195.628906 303.988281 195.894531 304.335938 196.242188 C 304.683594 196.589844 304.949219 196.992188 305.140625 197.445312 C 305.328125 197.898438 305.421875 198.375 305.421875 198.863281 L 305.421875 220.085938 C 305.421875 220.765625 305.25 221.394531 304.90625 221.976562 C 304.558594 222.558594 304.089844 223.015625 303.492188 223.339844 C 298.902344 225.839844 287.351562 233.59375 282.683594 250.222656 C 282.542969 250.714844 282.332031 251.171875 282.042969 251.59375 C 281.757812 252.015625 281.410156 252.382812 281.003906 252.6875 C 280.597656 252.996094 280.152344 253.234375 279.667969 253.394531 C 279.183594 253.558594 278.6875 253.640625 278.175781 253.640625 L 206.988281 253.640625 C 206.496094 253.640625 206.023438 253.542969 205.566406 253.355469 C 205.113281 253.167969 204.710938 252.898438 204.363281 252.550781 C 204.019531 252.203125 203.75 251.804688 203.5625 251.347656 C 203.375 250.894531 203.28125 250.421875 203.28125 249.929688 Z M 203.28125 249.929688 " fill-opacity="1" fill-rule="nonzero"/></g><g clip-path="url(#bd89225ab5)"><path fill="#010101" d="M 293.394531 296.914062 C 281.277344 289.511719 278.082031 275.230469 277.308594 266.421875 C 277.28125 266.101562 277.199219 265.796875 277.054688 265.507812 C 276.914062 265.21875 276.726562 264.964844 276.488281 264.746094 C 276.25 264.527344 275.984375 264.359375 275.683594 264.242188 C 275.382812 264.125 275.074219 264.066406 274.75 264.066406 L 217.332031 264.066406 C 217.011719 264.066406 216.699219 264.125 216.402344 264.242188 C 216.101562 264.359375 215.832031 264.527344 215.597656 264.746094 C 215.359375 264.964844 215.171875 265.21875 215.027344 265.507812 C 214.886719 265.796875 214.804688 266.101562 214.777344 266.421875 C 214 275.230469 210.808594 289.511719 198.691406 296.914062 C 197.917969 297.382812 197.308594 298.007812 196.863281 298.792969 C 196.417969 299.578125 196.195312 300.425781 196.191406 301.328125 L 196.191406 304.652344 C 196.191406 305.152344 196.285156 305.636719 196.476562 306.097656 C 196.667969 306.5625 196.941406 306.972656 197.296875 307.328125 C 197.652344 307.679688 198.0625 307.953125 198.523438 308.144531 C 198.988281 308.339844 199.472656 308.433594 199.972656 308.433594 L 222.988281 308.433594 C 223.734375 308.4375 224.417969 308.234375 225.042969 307.832031 C 225.667969 307.429688 226.132812 306.886719 226.4375 306.207031 C 228.121094 302.425781 233.050781 295.152344 246.042969 295.152344 C 259.035156 295.152344 263.960938 302.425781 265.648438 306.207031 C 265.953125 306.886719 266.414062 307.429688 267.039062 307.832031 C 267.664062 308.234375 268.347656 308.4375 269.09375 308.433594 L 292.113281 308.433594 C 292.617188 308.433594 293.097656 308.339844 293.5625 308.144531 C 294.023438 307.953125 294.433594 307.679688 294.789062 307.328125 C 295.144531 306.972656 295.417969 306.5625 295.609375 306.097656 C 295.800781 305.636719 295.898438 305.152344 295.898438 304.652344 L 295.898438 301.328125 C 295.894531 300.425781 295.667969 299.578125 295.222656 298.792969 C 294.777344 298.007812 294.167969 297.382812 293.394531 296.914062 Z M 293.394531 296.914062 " fill-opacity="1" fill-rule="nonzero"/></g></svg>