<svg xmlns="http://www.w3.org/2000/svg" xmlns:xlink="http://www.w3.org/1999/xlink" width="500" zoomAndPan="magnify" viewBox="0 0 375 374.999991" height="500" preserveAspectRatio="xMidYMid meet" version="1.0"><defs><g/><clipPath id="f01bfc4520"><path d="M 197 152 L 265.339844 152 L 265.339844 192 L 197 192 Z M 197 152 " clip-rule="nonzero"/></clipPath><clipPath id="9adcc6c6f1"><path d="M 193 198 L 260 198 L 260 227.332031 L 193 227.332031 Z M 193 198 " clip-rule="nonzero"/></clipPath></defs><path fill="#010101" d="M 242.777344 84.890625 C 240.988281 93.207031 237.578125 104.925781 231.777344 111.074219 C 230.566406 112.355469 230.699219 114.652344 232.03125 115.753906 C 234.855469 118.105469 237.257812 120.832031 239.226562 123.933594 C 241.199219 127.035156 242.652344 130.367188 243.578125 133.921875 C 243.992188 135.507812 245.851562 135.589844 246.34375 134.035156 C 248.132812 128.398438 251.429688 120.390625 256.601562 116.226562 C 258.035156 115.070312 258.167969 112.609375 256.90625 111.191406 C 253.101562 106.917969 246.871094 98.148438 244.972656 85.003906 C 244.769531 83.582031 243.078125 83.496094 242.777344 84.890625 Z M 242.777344 84.890625 " fill-opacity="1" fill-rule="nonzero"/><path fill="#010101" d="M 171.695312 71.996094 L 209.636719 109.9375 C 209.929688 110.230469 210.1875 110.546875 210.417969 110.890625 C 210.644531 111.230469 210.839844 111.59375 210.996094 111.972656 C 211.152344 112.351562 211.273438 112.742188 211.351562 113.148438 C 211.433594 113.550781 211.472656 113.957031 211.472656 114.371094 C 211.472656 114.78125 211.433594 115.1875 211.351562 115.59375 C 211.273438 115.996094 211.152344 116.386719 210.996094 116.769531 C 210.839844 117.148438 210.644531 117.507812 210.417969 117.851562 C 210.1875 118.191406 209.929688 118.507812 209.636719 118.800781 L 190.550781 137.886719 C 190.261719 138.175781 189.945312 138.4375 189.601562 138.664062 C 189.261719 138.894531 188.898438 139.085938 188.519531 139.246094 C 188.140625 139.402344 187.746094 139.519531 187.34375 139.601562 C 186.941406 139.679688 186.53125 139.722656 186.121094 139.722656 C 185.710938 139.722656 185.304688 139.679688 184.898438 139.601562 C 184.496094 139.519531 184.105469 139.402344 183.722656 139.246094 C 183.34375 139.085938 182.984375 138.894531 182.640625 138.664062 C 182.296875 138.4375 181.980469 138.175781 181.691406 137.886719 L 143.746094 99.941406 C 143.457031 99.652344 143.195312 99.335938 142.96875 98.992188 C 142.738281 98.652344 142.546875 98.289062 142.390625 97.910156 C 142.230469 97.53125 142.113281 97.136719 142.03125 96.734375 C 141.953125 96.332031 141.914062 95.921875 141.914062 95.511719 C 141.914062 95.101562 141.953125 94.691406 142.03125 94.289062 C 142.113281 93.886719 142.230469 93.496094 142.390625 93.113281 C 142.546875 92.734375 142.738281 92.371094 142.96875 92.03125 C 143.195312 91.6875 143.457031 91.371094 143.746094 91.082031 L 162.832031 71.996094 C 163.125 71.703125 163.441406 71.445312 163.78125 71.214844 C 164.125 70.988281 164.484375 70.796875 164.867188 70.636719 C 165.246094 70.480469 165.636719 70.363281 166.042969 70.28125 C 166.445312 70.199219 166.851562 70.160156 167.261719 70.160156 C 167.675781 70.160156 168.082031 70.199219 168.484375 70.28125 C 168.890625 70.363281 169.28125 70.480469 169.660156 70.636719 C 170.042969 70.796875 170.402344 70.988281 170.746094 71.214844 C 171.085938 71.445312 171.402344 71.703125 171.695312 71.996094 Z M 171.695312 71.996094 " fill-opacity="1" fill-rule="nonzero"/><path fill="#010101" d="M 188.472656 159.800781 L 152.410156 159.800781 C 151.886719 159.800781 151.398438 159.933594 150.945312 160.203125 C 150.496094 160.476562 150.144531 160.839844 149.898438 161.304688 C 149.648438 161.765625 149.539062 162.261719 149.5625 162.785156 C 149.585938 163.3125 149.742188 163.792969 150.035156 164.230469 C 154.109375 170.429688 164.484375 181.203125 188.203125 183.5625 C 188.566406 183.597656 188.921875 183.558594 189.265625 183.449219 C 189.613281 183.335938 189.921875 183.15625 190.191406 182.914062 C 190.460938 182.667969 190.671875 182.378906 190.820312 182.046875 C 190.96875 181.714844 191.042969 181.367188 191.042969 181.003906 L 191.042969 162.371094 C 191.042969 162.027344 190.980469 161.699219 190.847656 161.386719 C 190.71875 161.070312 190.53125 160.792969 190.289062 160.550781 C 190.050781 160.308594 189.769531 160.125 189.457031 159.996094 C 189.140625 159.863281 188.8125 159.800781 188.472656 159.800781 Z M 188.472656 159.800781 " fill-opacity="1" fill-rule="nonzero"/><path fill="#010101" d="M 153.824219 121.242188 L 160.394531 127.808594 C 160.667969 128.082031 160.878906 128.402344 161.03125 128.761719 C 161.179688 129.121094 161.253906 129.496094 161.253906 129.882812 C 161.253906 130.273438 161.179688 130.648438 161.03125 131.007812 C 160.878906 131.367188 160.667969 131.6875 160.394531 131.960938 L 122.273438 170.082031 C 121.996094 170.355469 121.679688 170.570312 121.320312 170.71875 C 120.960938 170.867188 120.585938 170.941406 120.195312 170.941406 C 119.808594 170.941406 119.433594 170.867188 119.070312 170.71875 C 118.710938 170.570312 118.394531 170.355469 118.121094 170.082031 L 111.550781 163.515625 C 111.277344 163.238281 111.066406 162.921875 110.914062 162.5625 C 110.765625 162.203125 110.691406 161.828125 110.691406 161.4375 C 110.691406 161.046875 110.765625 160.671875 110.914062 160.3125 C 111.066406 159.953125 111.277344 159.636719 111.550781 159.359375 L 149.671875 121.242188 C 149.949219 120.964844 150.265625 120.753906 150.625 120.605469 C 150.984375 120.453125 151.359375 120.378906 151.75 120.378906 C 152.136719 120.378906 152.511719 120.453125 152.871094 120.605469 C 153.234375 120.753906 153.550781 120.964844 153.824219 121.242188 Z M 153.824219 121.242188 " fill-opacity="1" fill-rule="nonzero"/><g clip-path="url(#f01bfc4520)"><path fill="#010101" d="M 197.949219 188.960938 L 197.949219 161.367188 C 197.949219 161.042969 198.007812 160.730469 198.132812 160.429688 C 198.257812 160.128906 198.4375 159.863281 198.667969 159.632812 C 198.894531 159.402344 199.160156 159.222656 199.460938 159.097656 C 199.761719 158.972656 200.078125 158.914062 200.402344 158.914062 C 200.859375 158.914062 201.300781 158.824219 201.722656 158.648438 C 202.148438 158.472656 202.519531 158.222656 202.84375 157.902344 C 203.167969 157.578125 203.417969 157.203125 203.59375 156.78125 C 203.769531 156.355469 203.859375 155.914062 203.859375 155.457031 L 203.859375 155.160156 C 203.859375 154.835938 203.917969 154.523438 204.042969 154.222656 C 204.167969 153.921875 204.347656 153.65625 204.578125 153.425781 C 204.804688 153.195312 205.070312 153.019531 205.371094 152.894531 C 205.671875 152.769531 205.988281 152.707031 206.3125 152.707031 L 263.105469 152.707031 C 263.429688 152.707031 263.742188 152.769531 264.042969 152.894531 C 264.34375 153.019531 264.609375 153.195312 264.839844 153.425781 C 265.070312 153.65625 265.246094 153.921875 265.371094 154.222656 C 265.496094 154.523438 265.558594 154.835938 265.558594 155.160156 L 265.558594 169.207031 C 265.558594 169.65625 265.445312 170.074219 265.214844 170.460938 C 264.988281 170.847656 264.675781 171.148438 264.28125 171.363281 C 261.242188 173.019531 253.597656 178.152344 250.507812 189.15625 C 250.414062 189.484375 250.273438 189.785156 250.085938 190.066406 C 249.894531 190.34375 249.664062 190.585938 249.394531 190.789062 C 249.125 190.992188 248.832031 191.148438 248.511719 191.257812 C 248.191406 191.363281 247.859375 191.417969 247.523438 191.417969 L 200.402344 191.417969 C 200.074219 191.417969 199.761719 191.355469 199.460938 191.230469 C 199.160156 191.105469 198.894531 190.929688 198.664062 190.699219 C 198.433594 190.46875 198.257812 190.203125 198.132812 189.902344 C 198.007812 189.601562 197.945312 189.289062 197.949219 188.960938 Z M 197.949219 188.960938 " fill-opacity="1" fill-rule="nonzero"/></g><g clip-path="url(#9adcc6c6f1)"><path fill="#010101" d="M 257.597656 220.0625 C 249.574219 215.164062 247.460938 205.710938 246.949219 199.878906 C 246.929688 199.667969 246.875 199.464844 246.78125 199.273438 C 246.6875 199.082031 246.5625 198.914062 246.40625 198.769531 C 246.25 198.625 246.070312 198.515625 245.875 198.4375 C 245.675781 198.359375 245.46875 198.320312 245.257812 198.320312 L 207.25 198.320312 C 207.035156 198.320312 206.832031 198.359375 206.632812 198.4375 C 206.433594 198.515625 206.257812 198.625 206.097656 198.769531 C 205.941406 198.914062 205.816406 199.082031 205.722656 199.273438 C 205.628906 199.464844 205.574219 199.667969 205.554688 199.878906 C 205.042969 205.710938 202.929688 215.164062 194.910156 220.0625 C 194.398438 220.375 193.996094 220.789062 193.699219 221.308594 C 193.40625 221.828125 193.257812 222.386719 193.253906 222.984375 L 193.253906 225.183594 C 193.253906 225.515625 193.316406 225.835938 193.445312 226.144531 C 193.570312 226.449219 193.753906 226.722656 193.988281 226.957031 C 194.222656 227.191406 194.492188 227.371094 194.800781 227.5 C 195.105469 227.625 195.425781 227.6875 195.757812 227.6875 L 210.992188 227.6875 C 211.484375 227.691406 211.9375 227.558594 212.351562 227.289062 C 212.765625 227.023438 213.074219 226.664062 213.277344 226.214844 C 214.390625 223.710938 217.652344 218.898438 226.253906 218.898438 C 234.851562 218.898438 238.113281 223.710938 239.230469 226.214844 C 239.429688 226.664062 239.738281 227.023438 240.152344 227.289062 C 240.566406 227.558594 241.019531 227.691406 241.511719 227.6875 L 256.75 227.6875 C 257.082031 227.6875 257.402344 227.625 257.707031 227.5 C 258.015625 227.371094 258.285156 227.191406 258.519531 226.957031 C 258.753906 226.722656 258.9375 226.449219 259.0625 226.144531 C 259.191406 225.835938 259.253906 225.515625 259.253906 225.183594 L 259.253906 222.984375 C 259.25 222.386719 259.101562 221.828125 258.808594 221.308594 C 258.511719 220.789062 258.109375 220.375 257.597656 220.0625 Z M 257.597656 220.0625 " fill-opacity="1" fill-rule="nonzero"/></g><g fill="#010101" fill-opacity="1"><g transform="translate(81.95334, 272.396743)"><g><path d="M 19.375 -24.21875 L 19.375 -21.296875 L 16.78125 -20.796875 L 16.78125 -7.265625 C 16.78125 -4.929688 16.015625 -3.078125 14.484375 -1.703125 C 12.960938 -0.335938 11.039062 0.34375 8.71875 0.34375 C 6.1875 0.34375 4.179688 -0.269531 2.703125 -1.5 C 1.234375 -2.726562 0.523438 -4.539062 0.578125 -6.9375 L 0.609375 -7.03125 L 5.34375 -7.03125 C 5.34375 -5.757812 5.644531 -4.832031 6.25 -4.25 C 6.863281 -3.664062 7.6875 -3.375 8.71875 -3.375 C 9.613281 -3.375 10.375 -3.71875 11 -4.40625 C 11.625 -5.101562 11.9375 -6.054688 11.9375 -7.265625 L 11.9375 -20.796875 L 9.34375 -21.296875 L 9.34375 -24.21875 Z M 19.375 -24.21875 "/></g></g></g><g fill="#010101" fill-opacity="1"><g transform="translate(106.135948, 272.396743)"><g><path d="M 23.0625 -11.921875 C 23.0625 -8.378906 22.046875 -5.445312 20.015625 -3.125 C 17.992188 -0.8125 15.34375 0.34375 12.0625 0.34375 C 8.789062 0.34375 6.144531 -0.8125 4.125 -3.125 C 2.113281 -5.445312 1.109375 -8.378906 1.109375 -11.921875 L 1.109375 -12.296875 C 1.109375 -15.816406 2.113281 -18.738281 4.125 -21.0625 C 6.132812 -23.394531 8.773438 -24.5625 12.046875 -24.5625 C 15.328125 -24.5625 17.984375 -23.394531 20.015625 -21.0625 C 22.046875 -18.738281 23.0625 -15.816406 23.0625 -12.296875 Z M 18.234375 -12.328125 C 18.234375 -14.828125 17.710938 -16.859375 16.671875 -18.421875 C 15.628906 -19.992188 14.085938 -20.78125 12.046875 -20.78125 C 10.003906 -20.78125 8.476562 -20 7.46875 -18.4375 C 6.46875 -16.882812 5.96875 -14.847656 5.96875 -12.328125 L 5.96875 -11.921875 C 5.96875 -9.367188 6.472656 -7.3125 7.484375 -5.75 C 8.503906 -4.195312 10.03125 -3.421875 12.0625 -3.421875 C 14.113281 -3.421875 15.65625 -4.195312 16.6875 -5.75 C 17.71875 -7.3125 18.234375 -9.367188 18.234375 -11.921875 Z M 18.234375 -12.328125 "/></g></g></g><g fill="#010101" fill-opacity="1"><g transform="translate(134.57544, 272.396743)"><g><path d="M 11.6875 -24.21875 C 14.539062 -24.21875 16.765625 -23.660156 18.359375 -22.546875 C 19.953125 -21.441406 20.75 -19.785156 20.75 -17.578125 C 20.75 -16.460938 20.453125 -15.460938 19.859375 -14.578125 C 19.273438 -13.691406 18.414062 -13.03125 17.28125 -12.59375 C 18.726562 -12.28125 19.816406 -11.613281 20.546875 -10.59375 C 21.273438 -9.570312 21.640625 -8.390625 21.640625 -7.046875 C 21.640625 -4.734375 20.875 -2.976562 19.34375 -1.78125 C 17.8125 -0.59375 15.644531 0 12.84375 0 L 0.9375 0 L 0.9375 -2.90625 L 3.515625 -3.40625 L 3.515625 -20.796875 L 0.9375 -21.296875 L 0.9375 -24.21875 Z M 8.359375 -10.71875 L 8.359375 -3.71875 L 12.84375 -3.71875 C 14.125 -3.71875 15.101562 -4 15.78125 -4.5625 C 16.457031 -5.125 16.796875 -5.953125 16.796875 -7.046875 C 16.796875 -8.234375 16.503906 -9.140625 15.921875 -9.765625 C 15.347656 -10.398438 14.441406 -10.71875 13.203125 -10.71875 Z M 8.359375 -14.078125 L 11.859375 -14.078125 C 13.148438 -14.078125 14.144531 -14.34375 14.84375 -14.875 C 15.550781 -15.40625 15.90625 -16.179688 15.90625 -17.203125 C 15.90625 -18.316406 15.550781 -19.140625 14.84375 -19.671875 C 14.132812 -20.203125 13.082031 -20.46875 11.6875 -20.46875 L 8.359375 -20.46875 Z M 8.359375 -14.078125 "/></g></g></g><g fill="#010101" fill-opacity="1"><g transform="translate(161.451859, 272.396743)"><g><path d="M 19.328125 -16.484375 L 15.6875 -16.484375 L 15.046875 -19.8125 C 14.628906 -20.070312 14.015625 -20.300781 13.203125 -20.5 C 12.390625 -20.707031 11.53125 -20.8125 10.625 -20.8125 C 9.289062 -20.8125 8.257812 -20.53125 7.53125 -19.96875 C 6.8125 -19.40625 6.453125 -18.679688 6.453125 -17.796875 C 6.453125 -16.972656 6.832031 -16.296875 7.59375 -15.765625 C 8.351562 -15.242188 9.664062 -14.691406 11.53125 -14.109375 C 14.195312 -13.359375 16.21875 -12.375 17.59375 -11.15625 C 18.976562 -9.9375 19.671875 -8.335938 19.671875 -6.359375 C 19.671875 -4.285156 18.847656 -2.648438 17.203125 -1.453125 C 15.566406 -0.253906 13.410156 0.34375 10.734375 0.34375 C 8.804688 0.34375 7.066406 0.0390625 5.515625 -0.5625 C 3.972656 -1.175781 2.6875 -2.019531 1.65625 -3.09375 L 1.65625 -8.15625 L 5.421875 -8.15625 L 5.9375 -4.703125 C 6.425781 -4.304688 7.085938 -3.976562 7.921875 -3.71875 C 8.765625 -3.457031 9.703125 -3.328125 10.734375 -3.328125 C 12.054688 -3.328125 13.0625 -3.597656 13.75 -4.140625 C 14.445312 -4.679688 14.796875 -5.40625 14.796875 -6.3125 C 14.796875 -7.25 14.46875 -8 13.8125 -8.5625 C 13.15625 -9.125 12 -9.65625 10.34375 -10.15625 C 7.46875 -10.988281 5.289062 -11.972656 3.8125 -13.109375 C 2.34375 -14.253906 1.609375 -15.820312 1.609375 -17.8125 C 1.609375 -19.769531 2.441406 -21.375 4.109375 -22.625 C 5.773438 -23.875 7.863281 -24.515625 10.375 -24.546875 C 12.238281 -24.546875 13.9375 -24.265625 15.46875 -23.703125 C 17 -23.140625 18.285156 -22.382812 19.328125 -21.4375 Z M 19.328125 -16.484375 "/></g></g></g><g fill="#010101" fill-opacity="1"><g transform="translate(186.465887, 272.396743)"><g><path d="M 24.296875 -17.90625 L 24.203125 -17.921875 L 17.71875 0 L 14.453125 0 L 8 -17.859375 L 7.90625 -17.84375 L 8.359375 -7.21875 L 8.359375 -3.40625 L 10.953125 -2.90625 L 10.953125 0 L 0.9375 0 L 0.9375 -2.90625 L 3.515625 -3.40625 L 3.515625 -20.796875 L 0.9375 -21.296875 L 0.9375 -24.21875 L 9.84375 -24.21875 L 16.015625 -6.375 L 16.109375 -6.375 L 22.34375 -24.21875 L 31.28125 -24.21875 L 31.28125 -21.296875 L 28.6875 -20.796875 L 28.6875 -3.40625 L 31.28125 -2.90625 L 31.28125 0 L 21.25 0 L 21.25 -2.90625 L 23.828125 -3.40625 L 23.828125 -7.21875 Z M 24.296875 -17.90625 "/></g></g></g><g fill="#010101" fill-opacity="1"><g transform="translate(222.903664, 272.396743)"><g><path d="M 0.921875 -21.296875 L 0.921875 -24.21875 L 10.9375 -24.21875 L 10.9375 -21.296875 L 8.34375 -20.796875 L 8.34375 -3.40625 L 10.9375 -2.90625 L 10.9375 0 L 0.921875 0 L 0.921875 -2.90625 L 3.515625 -3.40625 L 3.515625 -20.796875 Z M 0.921875 -21.296875 "/></g></g></g><g fill="#010101" fill-opacity="1"><g transform="translate(239.121248, 272.396743)"><g><path d="M 22.25 -24.21875 L 22.25 -17.765625 L 18.53125 -17.765625 L 18.328125 -20.46875 L 13.875 -20.46875 L 13.875 -3.40625 L 16.46875 -2.90625 L 16.46875 0 L 6.421875 0 L 6.421875 -2.90625 L 9.015625 -3.40625 L 9.015625 -20.46875 L 4.578125 -20.46875 L 4.375 -17.765625 L 0.671875 -17.765625 L 0.671875 -24.21875 Z M 22.25 -24.21875 "/></g></g></g><g fill="#010101" fill-opacity="1"><g transform="translate(266.380117, 272.396743)"><g><path d="M 0.9375 -21.296875 L 0.9375 -24.21875 L 10.953125 -24.21875 L 10.953125 -21.296875 L 8.359375 -20.796875 L 8.359375 -13.796875 L 18.25 -13.796875 L 18.25 -20.796875 L 15.65625 -21.296875 L 15.65625 -24.21875 L 25.6875 -24.21875 L 25.6875 -21.296875 L 23.078125 -20.796875 L 23.078125 -3.40625 L 25.6875 -2.90625 L 25.6875 0 L 15.65625 0 L 15.65625 -2.90625 L 18.25 -3.40625 L 18.25 -10.0625 L 8.359375 -10.0625 L 8.359375 -3.40625 L 10.953125 -2.90625 L 10.953125 0 L 0.9375 0 L 0.9375 -2.90625 L 3.515625 -3.40625 L 3.515625 -20.796875 Z M 0.9375 -21.296875 "/></g></g></g><g fill="#cca349" fill-opacity="1"><g transform="translate(64.868122, 304.703599)"><g><path d="M 1.390625 -13.90625 L 7.453125 -13.90625 C 9.222656 -13.90625 10.597656 -13.484375 11.578125 -12.640625 C 12.566406 -11.804688 13.0625 -10.613281 13.0625 -9.0625 C 13.0625 -7.4375 12.566406 -6.171875 11.578125 -5.265625 C 10.597656 -4.367188 9.222656 -3.921875 7.453125 -3.921875 L 4.921875 -3.921875 L 4.921875 0 L 1.390625 0 Z M 4.921875 -11.125 L 4.921875 -6.703125 L 7.28125 -6.703125 C 8.0625 -6.703125 8.660156 -6.890625 9.078125 -7.265625 C 9.503906 -7.648438 9.71875 -8.207031 9.71875 -8.9375 C 9.71875 -9.65625 9.503906 -10.195312 9.078125 -10.5625 C 8.660156 -10.9375 8.0625 -11.125 7.28125 -11.125 Z M 4.921875 -11.125 "/></g></g></g><g fill="#cca349" fill-opacity="1"><g transform="translate(86.198988, 304.703599)"><g><path d="M 9.78125 0 L 7.71875 -3.921875 L 4.921875 -3.921875 L 4.921875 0 L 1.390625 0 L 1.390625 -13.90625 L 7.609375 -13.90625 C 9.453125 -13.90625 10.875 -13.484375 11.875 -12.640625 C 12.882812 -11.804688 13.390625 -10.613281 13.390625 -9.0625 C 13.390625 -6.914062 12.550781 -5.425781 10.875 -4.59375 L 13.796875 0 Z M 4.921875 -6.703125 L 7.609375 -6.703125 C 8.378906 -6.703125 8.972656 -6.890625 9.390625 -7.265625 C 9.816406 -7.648438 10.03125 -8.207031 10.03125 -8.9375 C 10.03125 -9.65625 9.816406 -10.195312 9.390625 -10.5625 C 8.972656 -10.9375 8.378906 -11.125 7.609375 -11.125 L 4.921875 -11.125 Z M 4.921875 -6.703125 "/></g></g></g><g fill="#cca349" fill-opacity="1"><g transform="translate(108.404458, 304.703599)"><g><path d="M 7.984375 -14.03125 C 10.148438 -14.03125 11.945312 -13.359375 13.375 -12.015625 C 14.800781 -10.671875 15.515625 -8.988281 15.515625 -6.96875 C 15.515625 -4.945312 14.796875 -3.253906 13.359375 -1.890625 C 11.921875 -0.523438 10.128906 0.15625 7.984375 0.15625 C 5.835938 0.15625 4.050781 -0.519531 2.625 -1.875 C 1.195312 -3.238281 0.484375 -4.9375 0.484375 -6.96875 C 0.484375 -9 1.195312 -10.679688 2.625 -12.015625 C 4.050781 -13.359375 5.835938 -14.03125 7.984375 -14.03125 Z M 8.03125 -11.078125 C 6.945312 -11.078125 6.019531 -10.679688 5.25 -9.890625 C 4.476562 -9.097656 4.09375 -8.117188 4.09375 -6.953125 C 4.09375 -5.785156 4.476562 -4.800781 5.25 -4 C 6.03125 -3.195312 6.957031 -2.796875 8.03125 -2.796875 C 9.101562 -2.796875 10.015625 -3.195312 10.765625 -4 C 11.515625 -4.800781 11.890625 -5.785156 11.890625 -6.953125 C 11.890625 -8.117188 11.515625 -9.097656 10.765625 -9.890625 C 10.015625 -10.679688 9.101562 -11.078125 8.03125 -11.078125 Z M 8.03125 -11.078125 "/></g></g></g><g fill="#cca349" fill-opacity="1"><g transform="translate(132.219972, 304.703599)"><g><path d="M 11.703125 -11.125 L 4.921875 -11.125 L 4.921875 -7.90625 L 11.171875 -7.90625 L 11.171875 -5.125 L 4.921875 -5.125 L 4.921875 0 L 1.390625 0 L 1.390625 -13.90625 L 11.703125 -13.90625 Z M 11.703125 -11.125 "/></g></g></g><g fill="#cca349" fill-opacity="1"><g transform="translate(152.040186, 304.703599)"><g><path d="M 12.28125 -11.125 L 4.921875 -11.125 L 4.921875 -8.375 L 11.5625 -8.375 L 11.5625 -5.578125 L 4.921875 -5.578125 L 4.921875 -2.78125 L 12.5 -2.78125 L 12.5 0 L 1.390625 0 L 1.390625 -13.90625 L 12.28125 -13.90625 Z M 12.28125 -11.125 "/></g></g></g><g fill="#cca349" fill-opacity="1"><g transform="translate(173.251784, 304.703599)"><g><path d="M 6.734375 -14.078125 C 8.816406 -14.078125 10.644531 -13.554688 12.21875 -12.515625 L 10.890625 -9.765625 C 10.160156 -10.179688 9.378906 -10.523438 8.546875 -10.796875 C 7.710938 -11.066406 7.007812 -11.203125 6.4375 -11.203125 C 5.414062 -11.203125 4.90625 -10.867188 4.90625 -10.203125 C 4.90625 -9.765625 5.15625 -9.410156 5.65625 -9.140625 C 6.164062 -8.878906 6.78125 -8.648438 7.5 -8.453125 C 8.226562 -8.265625 8.953125 -8.035156 9.671875 -7.765625 C 10.390625 -7.492188 11 -7.050781 11.5 -6.4375 C 12.007812 -5.832031 12.265625 -5.066406 12.265625 -4.140625 C 12.265625 -2.796875 11.738281 -1.75 10.6875 -1 C 9.644531 -0.25 8.316406 0.125 6.703125 0.125 C 5.546875 0.125 4.40625 -0.0703125 3.28125 -0.46875 C 2.15625 -0.875 1.175781 -1.421875 0.34375 -2.109375 L 1.703125 -4.828125 C 2.410156 -4.222656 3.238281 -3.722656 4.1875 -3.328125 C 5.144531 -2.941406 5.992188 -2.75 6.734375 -2.75 C 7.304688 -2.75 7.75 -2.847656 8.0625 -3.046875 C 8.382812 -3.253906 8.546875 -3.554688 8.546875 -3.953125 C 8.546875 -4.335938 8.363281 -4.660156 8 -4.921875 C 7.632812 -5.179688 7.179688 -5.375 6.640625 -5.5 C 6.097656 -5.625 5.507812 -5.789062 4.875 -6 C 4.238281 -6.207031 3.644531 -6.4375 3.09375 -6.6875 C 2.550781 -6.945312 2.097656 -7.347656 1.734375 -7.890625 C 1.367188 -8.441406 1.1875 -9.101562 1.1875 -9.875 C 1.1875 -11.144531 1.691406 -12.160156 2.703125 -12.921875 C 3.722656 -13.691406 5.066406 -14.078125 6.734375 -14.078125 Z M 6.734375 -14.078125 "/></g></g></g><g fill="#cca349" fill-opacity="1"><g transform="translate(193.867081, 304.703599)"><g><path d="M 6.734375 -14.078125 C 8.816406 -14.078125 10.644531 -13.554688 12.21875 -12.515625 L 10.890625 -9.765625 C 10.160156 -10.179688 9.378906 -10.523438 8.546875 -10.796875 C 7.710938 -11.066406 7.007812 -11.203125 6.4375 -11.203125 C 5.414062 -11.203125 4.90625 -10.867188 4.90625 -10.203125 C 4.90625 -9.765625 5.15625 -9.410156 5.65625 -9.140625 C 6.164062 -8.878906 6.78125 -8.648438 7.5 -8.453125 C 8.226562 -8.265625 8.953125 -8.035156 9.671875 -7.765625 C 10.390625 -7.492188 11 -7.050781 11.5 -6.4375 C 12.007812 -5.832031 12.265625 -5.066406 12.265625 -4.140625 C 12.265625 -2.796875 11.738281 -1.75 10.6875 -1 C 9.644531 -0.25 8.316406 0.125 6.703125 0.125 C 5.546875 0.125 4.40625 -0.0703125 3.28125 -0.46875 C 2.15625 -0.875 1.175781 -1.421875 0.34375 -2.109375 L 1.703125 -4.828125 C 2.410156 -4.222656 3.238281 -3.722656 4.1875 -3.328125 C 5.144531 -2.941406 5.992188 -2.75 6.734375 -2.75 C 7.304688 -2.75 7.75 -2.847656 8.0625 -3.046875 C 8.382812 -3.253906 8.546875 -3.554688 8.546875 -3.953125 C 8.546875 -4.335938 8.363281 -4.660156 8 -4.921875 C 7.632812 -5.179688 7.179688 -5.375 6.640625 -5.5 C 6.097656 -5.625 5.507812 -5.789062 4.875 -6 C 4.238281 -6.207031 3.644531 -6.4375 3.09375 -6.6875 C 2.550781 -6.945312 2.097656 -7.347656 1.734375 -7.890625 C 1.367188 -8.441406 1.1875 -9.101562 1.1875 -9.875 C 1.1875 -11.144531 1.691406 -12.160156 2.703125 -12.921875 C 3.722656 -13.691406 5.066406 -14.078125 6.734375 -14.078125 Z M 6.734375 -14.078125 "/></g></g></g><g fill="#cca349" fill-opacity="1"><g transform="translate(214.482377, 304.703599)"><g><path d="M 4.921875 0 L 1.390625 0 L 1.390625 -13.90625 L 4.921875 -13.90625 Z M 4.921875 0 "/></g></g></g><g fill="#cca349" fill-opacity="1"><g transform="translate(228.617722, 304.703599)"><g><path d="M 7.984375 -14.03125 C 10.148438 -14.03125 11.945312 -13.359375 13.375 -12.015625 C 14.800781 -10.671875 15.515625 -8.988281 15.515625 -6.96875 C 15.515625 -4.945312 14.796875 -3.253906 13.359375 -1.890625 C 11.921875 -0.523438 10.128906 0.15625 7.984375 0.15625 C 5.835938 0.15625 4.050781 -0.519531 2.625 -1.875 C 1.195312 -3.238281 0.484375 -4.9375 0.484375 -6.96875 C 0.484375 -9 1.195312 -10.679688 2.625 -12.015625 C 4.050781 -13.359375 5.835938 -14.03125 7.984375 -14.03125 Z M 8.03125 -11.078125 C 6.945312 -11.078125 6.019531 -10.679688 5.25 -9.890625 C 4.476562 -9.097656 4.09375 -8.117188 4.09375 -6.953125 C 4.09375 -5.785156 4.476562 -4.800781 5.25 -4 C 6.03125 -3.195312 6.957031 -2.796875 8.03125 -2.796875 C 9.101562 -2.796875 10.015625 -3.195312 10.765625 -4 C 11.515625 -4.800781 11.890625 -5.785156 11.890625 -6.953125 C 11.890625 -8.117188 11.515625 -9.097656 10.765625 -9.890625 C 10.015625 -10.679688 9.101562 -11.078125 8.03125 -11.078125 Z M 8.03125 -11.078125 "/></g></g></g><g fill="#cca349" fill-opacity="1"><g transform="translate(252.433239, 304.703599)"><g><path d="M 14.234375 0 L 11.109375 0 L 4.703125 -8.5625 L 4.703125 0 L 1.390625 0 L 1.390625 -13.90625 L 4.515625 -13.90625 L 10.9375 -5.328125 L 10.9375 -13.90625 L 14.234375 -13.90625 Z M 14.234375 0 "/></g></g></g><g fill="#cca349" fill-opacity="1"><g transform="translate(275.87108, 304.703599)"><g><path d="M 10.640625 -2.5625 L 4.546875 -2.5625 L 3.53125 0 L -0.09375 0 L 5.90625 -13.90625 L 9.546875 -13.90625 L 15.40625 0 L 11.625 0 Z M 9.59375 -5.25 L 7.609375 -10.390625 L 5.578125 -5.25 Z M 9.59375 -5.25 "/></g></g></g><g fill="#cca349" fill-opacity="1"><g transform="translate(298.990884, 304.703599)"><g><path d="M 4.921875 -2.96875 L 10.828125 -2.96875 L 10.828125 0 L 1.390625 0 L 1.390625 -13.90625 L 4.921875 -13.90625 Z M 4.921875 -2.96875 "/></g></g></g></svg>